<?xml version="1.0" standalone="no"?>
<!DOCTYPE svg PUBLIC "-//W3C//DTD SVG 20010904//EN"
 "http://www.w3.org/TR/2001/REC-SVG-20010904/DTD/svg10.dtd">
<svg version="1.0" xmlns="http://www.w3.org/2000/svg"
 width="400.000000pt" height="400.000000pt" viewBox="0 0 400.000000 400.000000"
 preserveAspectRatio="xMidYMid meet">
<metadata>
Created by potrace 1.14, written by Peter Selinger 2001-2017
</metadata>
<g transform="translate(0.000000,400.000000) scale(0.100000,-0.100000)"
fill="#000000" stroke="none">
<path d="M0 2000 c0 -1327 3 -2000 10 -2000 7 0 10 672 10 1995 l0 1995 1993
3 1992 2 -2002 3 -2003 2 0 -2000z"/>
<path d="M1760 3266 c0 -24 5 -36 18 -40 10 -4 26 -31 39 -69 25 -71 65 -178
84 -222 12 -29 13 -29 17 -6 2 13 -1 28 -7 34 -6 6 -11 17 -11 24 0 7 -8 32
-19 56 -10 23 -24 62 -31 87 -18 60 -70 170 -81 170 -5 0 -9 -15 -9 -34z"/>
<path d="M1748 3200 c-19 -69 -33 -295 -19 -285 6 3 11 26 11 50 0 24 5 66 11
93 11 54 9 186 -3 142z"/>
<path d="M1884 2874 c-36 -29 -131 -35 -140 -9 -7 18 -35 12 -76 -17 -23 -16
-28 -27 -28 -64 0 -37 -4 -46 -23 -53 -63 -24 -178 -135 -238 -230 -42 -67
-92 -192 -109 -276 -7 -33 -16 -76 -21 -95 -12 -49 -11 -358 2 -422 6 -29 15
-78 20 -108 23 -121 68 -258 121 -366 l41 -83 -56 -61 c-31 -33 -61 -76 -68
-95 -12 -32 -20 -37 -69 -51 -85 -24 -107 -34 -139 -65 -43 -41 -76 -96 -89
-151 -27 -108 -9 -182 63 -253 l50 -50 -1 -130 c0 -109 -4 -140 -23 -195 -13
-36 -27 -69 -32 -74 -15 -16 -10 -26 12 -26 11 0 29 10 40 22 l19 23 6 -23 c6
-21 10 -22 140 -22 l134 0 0 114 c0 142 21 206 63 190 26 -10 49 -85 54 -174
2 -47 6 -95 9 -107 l4 -23 629 0 629 0 6 23 c3 12 6 39 6 60 0 20 3 37 8 37 4
0 19 -27 34 -60 l27 -60 156 0 156 0 -32 58 c-18 31 -35 62 -39 67 -17 26 -72
178 -91 254 l-20 84 35 36 c19 20 47 61 62 91 97 193 -62 445 -295 468 -61 6
-67 9 -80 37 -26 57 -80 112 -138 142 -66 34 -64 27 -37 163 15 77 15 116 5
410 -6 178 -16 340 -20 360 -5 19 -14 62 -20 95 -12 68 -52 197 -77 253 -27
56 -90 147 -132 188 -44 44 -154 99 -228 114 -31 7 -54 17 -54 24 0 23 -34 43
-81 48 -37 4 -51 1 -75 -18z m-114 -60 c0 -2 -15 -4 -32 -3 -27 0 -29 2 -13 8
18 8 45 4 45 -5z m-145 -305 c11 -35 -4 -86 -30 -103 -29 -19 -55 -20 -90 -4
-22 10 -26 17 -23 47 2 27 11 41 37 58 44 30 97 31 106 2z m-147 -199 c2 -18
-2 -43 -8 -55 -15 -28 -7 -302 11 -370 7 -27 13 -79 13 -115 1 -63 0 -65 -24
-62 -41 4 -87 59 -111 130 -18 53 -21 87 -21 206 0 126 3 150 24 202 16 41 33
65 57 81 43 29 55 26 59 -17z m504 -774 c11 -125 3 -148 -53 -162 -66 -17 -70
-10 -67 120 l3 111 35 12 c69 24 74 19 82 -81z m-134 -40 c3 -129 1 -141 -28
-126 -41 22 -60 69 -60 151 0 42 3 79 7 83 4 4 23 6 43 4 l35 -3 3 -109z
m-398 -402 c0 -3 -11 -15 -24 -25 -26 -20 -56 -72 -56 -96 0 -8 -4 -11 -10 -8
-14 9 -13 34 3 50 6 7 26 29 42 49 28 33 45 44 45 30z m-101 -184 c-3 -87 -19
-98 -19 -12 0 44 4 72 11 72 6 0 9 -23 8 -60z m41 -97 c0 -2 -7 2 -15 11 -8 8
-15 23 -15 33 0 13 4 10 15 -11 8 -15 15 -30 15 -33z m-296 -18 c-9 -14 -19
-24 -21 -21 -6 6 20 46 30 46 4 0 0 -11 -9 -25z m268 8 c1 -15 36 -33 55 -27
15 5 15 4 3 -5 -15 -11 -9 -14 25 -12 18 1 17 -1 -3 -11 -15 -7 -26 -8 -30 -2
-4 5 -19 17 -34 27 -16 10 -28 25 -28 34 0 16 11 13 12 -4z m1219 -16 c-16
-16 -25 -1 -10 16 8 8 16 11 18 5 2 -5 -2 -15 -8 -21z m-31 -14 c0 -7 -64 -39
-125 -63 -19 -7 -66 -21 -145 -41 -54 -13 -198 -29 -254 -28 -36 1 -19 5 59
14 208 24 300 47 410 103 45 23 55 25 55 15z m-1490 -63 c-6 -23 -9 -61 -6
-84 4 -29 3 -35 -3 -21 -13 27 -13 98 -1 131 16 41 23 22 10 -26z m420 20
c-16 -10 -8 -13 29 -10 14 1 21 -2 17 -9 -9 -14 -43 -14 -51 -1 -3 6 -16 10
-28 11 -21 0 -21 1 -2 9 11 5 27 9 35 9 13 1 13 0 0 -9z m135 -50 c71 -20 138
-30 244 -35 57 -3 107 -8 110 -11 17 -19 -366 20 -385 39 -4 4 -18 7 -31 7
-12 0 -23 5 -23 11 0 12 11 10 85 -11z m-141 -196 c26 -10 38 -41 26 -64 -13
-24 -38 -26 -68 -4 -47 33 -13 89 42 68z m-299 -371 c-4 -21 -12 -33 -22 -33
-10 0 -13 5 -9 17 4 9 9 38 12 63 3 25 9 52 12 60 9 21 15 -67 7 -107z"/>
</g>
</svg>
